<?xml version="1.0" encoding="UTF-8"?>
<svg xmlns="http://www.w3.org/2000/svg" xmlns:xlink="http://www.w3.org/1999/xlink" width="16px" height="16px" viewBox="0 0 16 16" version="1.1">
<g id="surface1">
<path style=" stroke:none;fill-rule:nonzero;fill:rgb(0%,0%,0%);fill-opacity:1;" d="M 15.273438 7.273438 L 3.273438 7.273438 L 3.273438 6.183594 C 3.273438 5.886719 3.097656 5.621094 2.824219 5.511719 C 2.550781 5.398438 2.238281 5.457031 2.03125 5.667969 L 0.214844 7.488281 C -0.0703125 7.769531 -0.0703125 8.230469 0.214844 8.511719 L 2.03125 10.332031 C 2.167969 10.472656 2.355469 10.542969 2.546875 10.542969 C 2.636719 10.542969 2.734375 10.527344 2.824219 10.488281 C 3.097656 10.378906 3.273438 10.113281 3.273438 9.816406 L 3.273438 8.726562 L 15.273438 8.726562 C 15.675781 8.726562 16 8.402344 16 8 C 16 7.597656 15.675781 7.273438 15.273438 7.273438 Z M 15.273438 7.273438 "/>
</g>
</svg>
